<?xml version="1.0" encoding="utf-8"?>
<!-- Generator: Adobe Illustrator 18.1.0, SVG Export Plug-In . SVG Version: 6.00 Build 0)  -->
<!DOCTYPE svg PUBLIC "-//W3C//DTD SVG 1.1//EN" "http://www.w3.org/Graphics/SVG/1.1/DTD/svg11.dtd">
<svg version="1.1" id="Layer_1" xmlns="http://www.w3.org/2000/svg" xmlns:xlink="http://www.w3.org/1999/xlink" x="0px" y="0px"
	 viewBox="0 0 82 117" enable-background="new 0 0 82 117" xml:space="preserve">
<g>
	<path fill="#4D4D4D" d="M58.4,23.4L29.6,62.7c-1.3,1.8-3.3,1.5-4.4-0.6l0,0c-1.1-2.1-0.9-5.3,0.4-7.1l28.8-39.3
		c1.3-1.8,3.3-1.5,4.4,0.6l0,0C59.9,18.4,59.7,21.6,58.4,23.4z"/>
	<path fill="#4D4D4D" d="M53.4,102.3L24.6,63c-1.3-1.8-1.5-4.9-0.4-7.1l0,0c1.1-2.2,3.1-2.4,4.4-0.6l28.8,39.3
		c1.3,1.8,1.5,4.9,0.4,7.1l0,0C56.7,103.8,54.7,104.1,53.4,102.3z"/>
</g>
</svg>
