<?xml version="1.0" encoding="utf-8"?>
<!-- Generator: Adobe Illustrator 18.1.0, SVG Export Plug-In . SVG Version: 6.00 Build 0)  -->
<!DOCTYPE svg PUBLIC "-//W3C//DTD SVG 1.1//EN" "http://www.w3.org/Graphics/SVG/1.1/DTD/svg11.dtd">
<svg version="1.1" id="Layer_1" xmlns="http://www.w3.org/2000/svg" xmlns:xlink="http://www.w3.org/1999/xlink" x="0px" y="0px"
	 viewBox="0 0 82 117" enable-background="new 0 0 82 117" xml:space="preserve">
<g>
	<path fill="#4D4D4D" d="M24.6,23.4l28.8,39.3c1.3,1.8,3.3,1.5,4.4-0.6l0,0c1.1-2.1,0.9-5.3-0.4-7.1L28.6,15.7
		c-1.3-1.8-3.3-1.5-4.4,0.6l0,0C23.1,18.4,23.3,21.6,24.6,23.4z"/>
	<path fill="#4D4D4D" d="M29.6,102.3L58.4,63c1.3-1.8,1.5-4.9,0.4-7.1l0,0c-1.1-2.2-3.1-2.4-4.4-0.6L25.6,94.6
		c-1.3,1.8-1.5,4.9-0.4,7.1l0,0C26.3,103.8,28.3,104.1,29.6,102.3z"/>
</g>
</svg>
