<?xml version="1.0" encoding="utf-8"?>
<!-- Generator: Adobe Illustrator 18.1.0, SVG Export Plug-In . SVG Version: 6.00 Build 0)  -->
<!DOCTYPE svg PUBLIC "-//W3C//DTD SVG 1.1//EN" "http://www.w3.org/Graphics/SVG/1.1/DTD/svg11.dtd">
<svg version="1.1" id="Layer_1" xmlns="http://www.w3.org/2000/svg" xmlns:xlink="http://www.w3.org/1999/xlink" x="0px" y="0px"
	 viewBox="-20 -220 1000 1000" enable-background="new -20 -220 1000 1000" xml:space="preserve">
<g>
	<g>
		<path fill="#FFCA61" d="M466.1-204.7c2.5-8.6,9.3-7.7,13.6,1.7l155.9,359.1c3.4,8.6,15.2,18,26.3,19.7l295.6,49.7
			c10.2,1.7,12.7,7.7,5.9,13.7L763.4,410.7c-7.6,6.9-10.2,19.7-6.8,28.3l95.7,211.7c3.4,7.7-0.8,12-10.2,8.6L486.4,532.4
			c-9.3-4.3-24.6-1.7-33.9,2.6L86.6,767.3c-9.3,6.9-13.6,2.6-9.3-7.7l124.5-311.1c5.1-11.1,1.7-24-5.1-31.7L-3.2,196.4
			c-7.6-7.7-3.4-16.3,5.9-18l311.7-24c10.2,0,21.2-8.6,25.4-18.9L466.1-204.7z"/>
	</g>
	<g>
		<path fill="#FFFFFF" d="M584.7,301.9H356c-9.3,0-16.9-8.6-16.9-18.9l0,0c0-10.3,7.6-18.9,16.9-18.9h229.5
			c9.3,0,16.9,9.4,16.9,18.9l0,0C600.8,294.2,594,301.9,584.7,301.9z"/>
		<path fill="#FFFFFF" d="M584.7,357.6H356c-9.3,0-16.9-9.4-16.9-18.9l0,0c0-10.3,7.6-18.9,16.9-18.9h229.5
			c9.3,0,16.9,8.6,16.9,18.9l0,0C600.8,349,594,357.6,584.7,357.6z"/>
		<path fill="#FFFFFF" d="M584.7,413.3H356c-9.3,0-16.9-8.6-16.9-18.9l0,0c0-10.3,7.6-18.9,16.9-18.9h229.5
			c9.3,0,16.9,9.4,16.9,18.9l0,0C600.8,404.7,594,413.3,584.7,413.3z"/>
	</g>
	<g>
		
			<path fill="none" stroke="#FFF1D5" stroke-width="10" stroke-linecap="round" stroke-miterlimit="10" stroke-dasharray="3.0008,15.0041,3.0008,15.0041,3.0008,15.0041" d="
			M478.8-68.4c2.5-6.9,7.6-6,10.2,0.9l90.6,264c1.7,7.7,11,14.6,18.6,15.4L832,249.6c8.5,0.9,10.2,6,3.4,11.1L694.8,384.2
			c-5.9,6-7.6,15.4-5.1,21.4l83,159.4c3.4,6,0,8.6-7.6,7.7L483,484.4c-7.6-2.6-20.3-1.7-28,1.7L202.7,637.9c-7.6,5.1-11,0.9-8.5-6.9
			l68.6-215.1c2.5-8.6,0-20.6-5.9-26.6L112,216.2c-5.1-6.9-3.4-12.9,4.2-12.9l233.8-6.9c7.6,0,16.9-6.9,21.2-14.6L478.8-68.4z"/>
	</g>
</g>
</svg>
