<?xml version="1.0" encoding="utf-8"?>
<!-- Generator: Adobe Illustrator 18.1.0, SVG Export Plug-In . SVG Version: 6.00 Build 0)  -->
<!DOCTYPE svg PUBLIC "-//W3C//DTD SVG 1.1//EN" "http://www.w3.org/Graphics/SVG/1.1/DTD/svg11.dtd">
<svg version="1.1" id="Layer_1" xmlns="http://www.w3.org/2000/svg" xmlns:xlink="http://www.w3.org/1999/xlink" x="0px" y="0px"
	 viewBox="5 -45 950 650" enable-background="new 5 -45 950 650" xml:space="preserve">
<g>
	<path fill="#FFFFFF" d="M749.1,591.9H218c-46.8,0-85.4-38.7-85.4-85.4V211.4c0-46.8,38.7-85.4,85.4-85.4H750
		c46.8,0,85.4,38.7,85.4,85.4v295.1C834.5,554.2,795.9,591.9,749.1,591.9z"/>
	<path fill="#FFC95F" d="M808.1,536.9c0,11.2-13.2,20.4-29.5,20.4H186.5c-16.2,0-29.5-9.2-29.5-20.4V147.3h650.1V537L808.1,536.9
		L808.1,536.9z M776.5-0.3h-70.2v44.8c0,16.2-20.4,30.5-44.8,30.5c-24.4,0-44.8-14.2-44.8-30.5V-0.3H344.2v44.8
		c0,16.2-20.4,30.5-44.8,30.5s-44.8-14.2-44.8-30.5V-0.3h-70.2c-46.9,0-86.6,26.5-86.6,60v478.1c0,33.5,38.7,60,86.5,60h591.1
		c46.8,0,86.5-26.5,86.5-60V59.7C863,26.2,825.4-0.3,776.5-0.3"/>
	<path fill="#FFC95F" d="M300.4,54.7c9.2,0,16.2-5.1,16.2-11.2V-1.3v-25.4c0-7.1-7.1-11.2-16.2-11.2c-9.2,0-16.2,5.1-16.2,11.2v25.4
		v44.8C285.1,50.6,291.2,54.7,300.4,54.7"/>
	<path fill="#FFC95F" d="M662.6,54.7c9.2,0,16.2-5.1,16.2-11.2v-70.2c0-7.1-7.1-11.2-16.2-11.2c-9.2,0-16.2,4.1-16.2,11.2v70.2
		C646.3,50.6,653.5,54.7,662.6,54.7"/>
	<path fill="#FFC95F" d="M379.8,251h45.8c3.1,0,7.1-2,7.1-4.1v-31.5c0-2-2-4.1-7.1-4.1h-45.8c-3.1,0-7.1,2-7.1,4.1v31.5
		C373.7,249,375.7,251,379.8,251"/>
	<path fill="#FFC95F" d="M462.2,251H508c3.1,0,7.1-2,7.1-4.1v-31.5c0-2-2-4.1-7.1-4.1h-45.8c-3.1,0-7.1,2-7.1,4.1v31.5
		C455.1,249,459.1,251,462.2,251"/>
	<path fill="#FFC95F" d="M544.6,251h45.8c3.1,0,7.1-2,7.1-4.1v-31.5c0-2-2-4.1-7.1-4.1h-45.8c-3.1,0-7.1,2-7.1,4.1v31.5
		C538.5,249,540.5,251,544.6,251"/>
	<path fill="#FFC95F" d="M627,251h45.8c3.1,0,7.1-2,7.1-4.1v-31.5c0-2-2-4.1-7.1-4.1H627c-3.1,0-7.1,2-7.1,4.1v31.5
		C620.9,249,622.9,251,627,251"/>
	<path fill="#FFC95F" d="M709.4,251h45.8c3.1,0,7.1-2,7.1-4.1v-31.5c0-2-2-4.1-7.1-4.1h-45.8c-3.1,0-7.1,2-7.1,4.1v31.5
		C702.3,249,706.3,251,709.4,251"/>
	<path fill="#FFC95F" d="M215,330.4h45.7c3.1,0,7.1-2,7.1-4.1v-31.5c0-2-2-4.1-7.1-4.1h-45.8c-3.1,0-7.1,2-7.1,4.1v31.5
		C207.8,328.3,211.9,330.4,215,330.4"/>
	<path fill="#FFC95F" d="M297.3,330.4h45.8c3.1,0,7.1-2,7.1-4.1v-31.5c0-2-2-4.1-7.1-4.1h-45.8c-3.1,0-7.1,2-7.1,4.1v31.5
		C291.2,328.3,293.3,330.4,297.3,330.4"/>
	<path fill="#FFC95F" d="M379.8,330.4h45.8c3.1,0,7.1-2,7.1-4.1v-31.5c0-2-2-4.1-7.1-4.1h-45.8c-3.1,0-7.1,2-7.1,4.1v31.5
		C373.7,328.3,375.7,330.4,379.8,330.4"/>
	<path fill="#FFC95F" d="M462.2,330.4H508c3.1,0,7.1-2,7.1-4.1v-31.5c0-2-2-4.1-7.1-4.1h-45.8c-3.1,0-7.1,2-7.1,4.1v31.5
		C455.1,328.3,459.1,330.4,462.2,330.4"/>
	<path fill="#FFC95F" d="M544.6,330.4h45.8c3.1,0,7.1-2,7.1-4.1v-31.5c0-2-2-4.1-7.1-4.1h-45.8c-3.1,0-7.1,2-7.1,4.1v31.5
		C538.5,328.3,540.5,330.4,544.6,330.4"/>
	<path fill="#FFC95F" d="M627,330.4h45.8c3.1,0,7.1-2,7.1-4.1v-31.5c0-2-2-4.1-7.1-4.1H627c-3.1,0-7.1,2-7.1,4.1v31.5
		C620.9,328.3,622.9,330.4,627,330.4"/>
	<path fill="#FFC95F" d="M709.4,330.4h45.8c3.1,0,7.1-2,7.1-4.1v-31.5c0-2-2-4.1-7.1-4.1h-45.8c-3.1,0-7.1,2-7.1,4.1v31.5
		C702.3,328.3,706.3,330.4,709.4,330.4"/>
	<path fill="#FFC95F" d="M215,409.7h45.7c3.1,0,7.1-2,7.1-4.1v-31.5c0-2-2-4.1-7.1-4.1h-45.8c-3.1,0-7.1,2-7.1,4.1v31.5
		C207.8,407.7,211.9,409.7,215,409.7"/>
	<path fill="#FFC95F" d="M297.3,409.7h45.8c3.1,0,7.1-2,7.1-4.1v-31.5c0-2-2-4.1-7.1-4.1h-45.8c-3.1,0-7.1,2-7.1,4.1v31.5
		C291.2,407.7,293.3,409.7,297.3,409.7"/>
	<path fill="#FFC95F" d="M379.8,409.7h45.8c3.1,0,7.1-2,7.1-4.1v-31.5c0-2-2-4.1-7.1-4.1h-45.8c-3.1,0-7.1,2-7.1,4.1v31.5
		C373.7,407.7,375.7,409.7,379.8,409.7"/>
	<path fill="#FFC95F" d="M462.2,409.7H508c3.1,0,7.1-2,7.1-4.1v-31.5c0-2-2-4.1-7.1-4.1h-45.8c-3.1,0-7.1,2-7.1,4.1v31.5
		C455.1,407.7,459.1,409.7,462.2,409.7"/>
	<path fill="#FFC95F" d="M544.6,409.7h45.8c3.1,0,7.1-2,7.1-4.1v-31.5c0-2-2-4.1-7.1-4.1h-45.8c-3.1,0-7.1,2-7.1,4.1v31.5
		C538.5,407.7,540.5,409.7,544.6,409.7"/>
	<path fill="#FFC95F" d="M627,409.7h45.8c3.1,0,7.1-2,7.1-4.1v-31.5c0-2-2-4.1-7.1-4.1H627c-3.1,0-7.1,2-7.1,4.1v31.5
		C620.9,407.7,622.9,409.7,627,409.7"/>
	<path fill="#FFC95F" d="M709.4,409.7h45.8c3.1,0,7.1-2,7.1-4.1v-31.5c0-2-2-4.1-7.1-4.1h-45.8c-3.1,0-7.1,2-7.1,4.1v31.5
		C702.3,407.7,706.3,409.7,709.4,409.7"/>
	<path fill="#FFC95F" d="M215,489.1h45.7c3.1,0,7.1-2,7.1-4.1v-31.5c0-2-2-4.1-7.1-4.1h-45.8c-3.1,0-7.1,2-7.1,4.1V485
		C207.8,487,211.9,489.1,215,489.1"/>
	<path fill="#FFC95F" d="M297.3,489.1h45.8c3.1,0,7.1-2,7.1-4.1v-31.5c0-2-2-4.1-7.1-4.1h-45.8c-3.1,0-7.1,2-7.1,4.1V485
		C291.2,487,293.3,489.1,297.3,489.1"/>
	<path fill="#FFC95F" d="M379.8,489.1h45.8c3.1,0,7.1-2,7.1-4.1v-31.5c0-2-2-4.1-7.1-4.1h-45.8c-3.1,0-7.1,2-7.1,4.1V485
		C373.7,487,375.7,489.1,379.8,489.1"/>
	<path fill="#FFC95F" d="M462.2,489.1H508c3.1,0,7.1-2,7.1-4.1v-31.5c0-2-2-4.1-7.1-4.1h-45.8c-3.1,0-7.1,2-7.1,4.1V485
		C455.1,487,459.1,489.1,462.2,489.1"/>
	<path fill="#FFC95F" d="M544.6,489.1h45.8c3.1,0,7.1-2,7.1-4.1v-31.5c0-2-2-4.1-7.1-4.1h-45.8c-3.1,0-7.1,2-7.1,4.1V485
		C538.5,487,540.5,489.1,544.6,489.1"/>
</g>
</svg>
