<?xml version="1.0" encoding="utf-8"?>
<!-- Generator: Adobe Illustrator 18.1.0, SVG Export Plug-In . SVG Version: 6.00 Build 0)  -->
<!DOCTYPE svg PUBLIC "-//W3C//DTD SVG 1.1//EN" "http://www.w3.org/Graphics/SVG/1.1/DTD/svg11.dtd">
<svg version="1.1" id="Layer_1" xmlns="http://www.w3.org/2000/svg" xmlns:xlink="http://www.w3.org/1999/xlink" x="0px" y="0px"
	 viewBox="0 0 100 105" enable-background="new 0 0 100 105" xml:space="preserve">
<g>
	<path fill="#E6E7E8" d="M31.9,1H4.9C2.8,1,1,2.8,1,4.9v68.7c0,2.2,1.8,3.9,3.9,3.9h89.9c2.2,0,3.9-1.8,3.9-3.9V4.9
		C98.8,2.8,97,1,94.9,1 M90.9,69.7H8.9V8.8h82.1V69.7z M94.9,1H67.2"/>
	<path fill="#E6E7E8" d="M63.2,51.6l13-17.2C75,34,74,33.3,73.3,32.3l-13,17.2C61.5,49.9,62.5,50.7,63.2,51.6"/>
	<path fill="#E6E7E8" d="M53.3,51.7c0.7-1,1.7-1.7,2.8-2.2L42.9,32.3c-0.7,1-1.7,1.7-2.8,2.2L53.3,51.7z"/>
	<path fill="#E6E7E8" d="M27,40.7l7.8-6.8c-1-0.6-1.9-1.6-2.4-2.7L24.7,38C25.7,38.7,26.5,39.6,27,40.7"/>
	<path fill="#E6E7E8" d="M36.2,32.7c0.5,0.2,1.1,0.4,1.8,0.4c0.3,0,0.6,0,1-0.1c1.2-0.3,2.2-1.1,2.8-2.2c0.3-0.6,0.5-1.3,0.5-2
		c0-2.4-1.9-4.3-4.3-4.3c-2.4,0-4.3,1.9-4.3,4.3c0,0.4,0.1,0.8,0.2,1.2C34.2,31.2,35,32.2,36.2,32.7"/>
	<path fill="#E6E7E8" d="M55.6,51.8c-0.2,0.2-0.4,0.4-0.6,0.6c0,0,0,0,0,0c-0.2,0.2-0.3,0.5-0.5,0.7c0,0,0,0,0,0l0,0
		c-0.3,0.6-0.5,1.3-0.5,2c0,2.4,1.9,4.3,4.3,4.3c2.4,0,4.3-1.9,4.3-4.3c0-0.7-0.2-1.4-0.5-2c0,0,0,0,0,0c-0.1-0.3-0.3-0.5-0.5-0.7
		c0,0,0,0,0,0c-0.2-0.2-0.4-0.4-0.6-0.6c0,0,0,0-0.1-0.1c-0.2-0.2-0.4-0.3-0.7-0.4c0,0-0.1,0-0.1-0.1c-0.3-0.1-0.6-0.2-0.9-0.3
		c-0.3-0.1-0.6-0.1-0.9-0.1c-0.7,0-1.3,0.2-1.8,0.4c0,0-0.1,0-0.1,0C56.1,51.5,55.9,51.6,55.6,51.8C55.7,51.8,55.7,51.8,55.6,51.8"
		/>
	<path fill="#E6E7E8" d="M77.3,32.9c0.3,0.1,0.7,0.1,1,0.1c2.4,0,4.3-1.9,4.3-4.3c0-2.4-1.9-4.3-4.3-4.3c-2.4,0-4.3,1.9-4.3,4.3
		c0,0.7,0.2,1.3,0.5,1.9C75.1,31.8,76.1,32.6,77.3,32.9"/>
	<path fill="#E6E7E8" d="M21.3,47.3c2.4,0,4.3-1.9,4.3-4.3c0-0.4-0.1-0.7-0.1-1c-0.3-1.2-1.1-2.2-2.2-2.8c-0.6-0.3-1.2-0.5-1.9-0.5
		C19,38.7,17,40.7,17,43C17,45.4,19,47.3,21.3,47.3"/>
</g>
</svg>
