<?xml version="1.0" encoding="utf-8"?>
<!-- Generator: Adobe Illustrator 18.1.0, SVG Export Plug-In . SVG Version: 6.00 Build 0)  -->
<!DOCTYPE svg PUBLIC "-//W3C//DTD SVG 1.1//EN" "http://www.w3.org/Graphics/SVG/1.1/DTD/svg11.dtd">
<svg version="1.1" id="Layer_1" xmlns="http://www.w3.org/2000/svg" xmlns:xlink="http://www.w3.org/1999/xlink" x="0px" y="0px"
	 viewBox="5 -45 950 650" enable-background="new 5 -45 950 650" xml:space="preserve">
<g>
	<rect x="134.5" y="8.3" fill="#FFFFFF" width="691.1" height="534.8"/>
	<path fill="#FFC95F" d="M813.1-40.6H144.9c-31.3,0-56.3,29.2-56.3,64.7v511.9c0,35.4,25.1,64.7,56.3,64.7h670.2
		c31.3,0,56.3-29.2,56.3-64.7v-514C869.4-13.5,844.4-40.6,813.1-40.6z M813.1,302.2c0,0-56.3-123.1-111.6-123.1
		c-28.2,0-56.3,20.9-83.4,40.7v314.8h-28.2V238.6c-17.7,11.5-37.5,20.9-56.3,20.9c-37.5,0-62.5-24-83.4-55.3v328.3H422V158.4
		c-27.1-51.1-55.3-102.2-111.6-102.2c-8.4,0-17.7,6.2-28.2,15.6v459.7H254V104.3c-15.6,21.8-33.4,49.1-49.1,76.1
		c-34.4,61.5-63.6,45.8-63.6,45.8V17.7h673.5v284.6h-1.8V302.2z"/>
	<rect x="143.4" y="22.3" fill="none" stroke="#FFFFFF" stroke-width="11.7664" stroke-miterlimit="3" width="673.3" height="515"/>
</g>
</svg>
