<?xml version="1.0" encoding="utf-8"?>
<!-- Generator: Adobe Illustrator 18.1.0, SVG Export Plug-In . SVG Version: 6.00 Build 0)  -->
<!DOCTYPE svg PUBLIC "-//W3C//DTD SVG 1.1//EN" "http://www.w3.org/Graphics/SVG/1.1/DTD/svg11.dtd">
<svg version="1.1" id="Layer_1" xmlns="http://www.w3.org/2000/svg" xmlns:xlink="http://www.w3.org/1999/xlink" x="0px" y="0px"
	 viewBox="0 0 100 105" enable-background="new 0 0 100 105" xml:space="preserve">
<g>
	<path fill="#5A5B5C" d="M32.1,2.8H5.4c-2.2,0-3.9,1.7-3.9,3.9v68.6c0,2.2,1.8,3.9,3.9,3.9h89.3c2.2,0,3.9-1.7,3.9-3.9V6.7
		c0-2.2-1.7-3.9-3.9-3.9 M90.7,71.4H9.3V10.6h81.5V71.4z M94.6,2.8H67.2"/>
	<path fill="#5A5B5C" d="M63.2,53.3l12.9-17.1C74.9,35.7,74,35,73.3,34L60.4,51.2C61.5,51.6,62.5,52.3,63.2,53.3"/>
	<path fill="#5A5B5C" d="M53.4,53.4c0.7-1,1.7-1.7,2.8-2.2L43,34c-0.7,1-1.7,1.7-2.8,2.2L53.4,53.4z"/>
	<path fill="#5A5B5C" d="M27.2,42.4l7.7-6.8c-1-0.6-1.8-1.6-2.3-2.7L25,39.7C26,40.4,26.8,41.3,27.2,42.4"/>
	<path fill="#5A5B5C" d="M36.4,34.4c0.5,0.2,1.1,0.4,1.7,0.4c0.3,0,0.6,0,1-0.1c1.2-0.3,2.2-1.1,2.8-2.2c0.3-0.6,0.5-1.3,0.5-2
		c0-2.4-1.9-4.3-4.3-4.3c-2.3,0-4.3,1.9-4.3,4.3c0,0.4,0.1,0.8,0.2,1.2C34.4,32.9,35.2,33.9,36.4,34.4"/>
	<path fill="#5A5B5C" d="M55.7,53.5c-0.2,0.2-0.4,0.4-0.6,0.6c0,0,0,0,0,0c-0.2,0.2-0.3,0.5-0.5,0.7c0,0,0,0,0,0l0,0
		c-0.3,0.6-0.5,1.2-0.5,2c0,2.3,1.9,4.3,4.3,4.3s4.3-1.9,4.3-4.3c0-0.7-0.2-1.4-0.5-2c0,0,0,0,0,0c-0.1-0.3-0.3-0.5-0.5-0.7
		c0,0,0,0,0,0c-0.2-0.2-0.4-0.4-0.6-0.6c0,0,0,0-0.1-0.1c-0.2-0.2-0.4-0.3-0.7-0.4c0,0-0.1,0-0.1-0.1c-0.3-0.1-0.6-0.2-0.9-0.3
		c-0.3-0.1-0.6-0.1-0.9-0.1c-0.6,0-1.2,0.2-1.8,0.4c0,0-0.1,0-0.1,0C56.2,53.2,56,53.3,55.7,53.5C55.7,53.5,55.7,53.5,55.7,53.5"/>
	<path fill="#5A5B5C" d="M77.2,34.7c0.3,0.1,0.7,0.1,1,0.1c2.3,0,4.3-1.9,4.3-4.3c0-2.4-1.9-4.3-4.3-4.3c-2.4,0-4.3,1.9-4.3,4.3
		c0,0.7,0.2,1.3,0.5,1.9C75,33.6,76,34.4,77.2,34.7"/>
	<path fill="#5A5B5C" d="M21.6,49c2.3,0,4.3-1.9,4.3-4.3c0-0.4-0.1-0.7-0.1-1c-0.3-1.2-1.1-2.2-2.2-2.8c-0.6-0.3-1.2-0.5-1.9-0.5
		c-2.3,0-4.3,1.9-4.3,4.3C17.4,47.1,19.3,49,21.6,49"/>
</g>
</svg>
