<?xml version="1.0" encoding="utf-8"?>
<!-- Generator: Adobe Illustrator 18.1.0, SVG Export Plug-In . SVG Version: 6.00 Build 0)  -->
<!DOCTYPE svg PUBLIC "-//W3C//DTD SVG 1.1//EN" "http://www.w3.org/Graphics/SVG/1.1/DTD/svg11.dtd">
<svg version="1.1" id="Layer_1" xmlns="http://www.w3.org/2000/svg" xmlns:xlink="http://www.w3.org/1999/xlink" x="0px" y="0px"
	 viewBox="0 0 100 105" enable-background="new 0 0 100 105" xml:space="preserve">
<g>
	<path fill="#58595B" d="M27.7,31.4c0,1.8,1.6,3.2,3.5,3.2c0,0,0,0,0.1,0c0.7,8.5,8.5,17.1,17.9,17.1c9.5,0,17.2-8.5,17.9-17.1
		c0,0,0,0,0.1,0c1.9,0,3.5-1.5,3.5-3.2c0-1.3-0.9-2.5-2.1-3c0.7-1.9,1.1-4,1.1-6.1c0-10.4-9.2-18.9-20.5-18.9
		c-11.3,0-20.5,8.5-20.5,18.9c0,2.1,0.4,4.2,1.1,6.1C28.6,28.9,27.7,30.1,27.7,31.4"/>
	<path fill="#58595B" d="M94.2,71.5C85.8,64.4,75.6,59.4,64.6,57c-0.3-0.1-0.6-0.2-0.9-0.2h-1c-0.3,0-0.6,0.1-0.9,0.2
		c-3.3,1.5-7.9,2.4-12.5,2.4c-4.6,0-9.2-0.9-12.5-2.4c-0.3-0.1-0.6-0.2-0.9-0.2h-0.7c-0.1,0-0.3,0-0.4,0
		c-11.3,2.3-21.8,7.4-30.4,14.6c-0.4,0.3-0.6,0.7-0.6,1.2v5.9c0,0.9,0.9,1.7,1.9,1.7h87.3c1.1,0,1.9-0.7,1.9-1.7v-5.9
		C94.8,72.2,94.6,71.8,94.2,71.5"/>
</g>
</svg>
