<?xml version="1.0" encoding="utf-8"?>
<!-- Generator: Adobe Illustrator 18.1.0, SVG Export Plug-In . SVG Version: 6.00 Build 0)  -->
<!DOCTYPE svg PUBLIC "-//W3C//DTD SVG 1.1//EN" "http://www.w3.org/Graphics/SVG/1.1/DTD/svg11.dtd">
<svg version="1.1" id="Layer_1" xmlns="http://www.w3.org/2000/svg" xmlns:xlink="http://www.w3.org/1999/xlink" x="0px" y="0px"
	 viewBox="5 -45 950 650" enable-background="new 5 -45 950 650" xml:space="preserve">
<g>
	<rect x="763.1" y="66.8" fill="#FFC95F" width="63.2" height="159.1"/>
	<rect x="763.1" y="280" fill="#FFC95F" width="63.2" height="159.1"/>
	<path fill="#FFFFFF" d="M567.2,516.7H404c-67.3,0-122.4-55.1-122.4-122.4V164.7c0-67.3,55.1-122.4,122.4-122.4h163.2
		c67.3,0,122.4,55.1,122.4,122.4v229.5C689.6,461.6,634.5,516.7,567.2,516.7z"/>
	<path fill="#FFC95F" d="M740.6,66.8v425.4c0,58.1-58.1,106.1-127.5,106.1h-255H230.6l0,0V-39.3l0,0h127.5h255
		C683.5-39.3,740.6,8.7,740.6,66.8z M485.6,93.3c-53,0-95.9,35.7-95.9,79.6s42.8,79.6,95.9,79.6s95.9-35.7,95.9-79.6
		S538.7,93.3,485.6,93.3z M613.1,333c0-29.6-28.6-53-63.2-53H422.4c-35.7,0-63.2,24.5-63.2,53v53v52h255v-53L613.1,333L613.1,333z"
		/>
	<rect x="133.7" y="-39.3" fill="#FFC95F" width="63.2" height="638.6"/>
</g>
</svg>
