<?xml version="1.0" encoding="utf-8"?>
<!-- Generator: Adobe Illustrator 18.1.0, SVG Export Plug-In . SVG Version: 6.00 Build 0)  -->
<!DOCTYPE svg PUBLIC "-//W3C//DTD SVG 1.1//EN" "http://www.w3.org/Graphics/SVG/1.1/DTD/svg11.dtd">
<svg version="1.1" id="Layer_1" xmlns="http://www.w3.org/2000/svg" xmlns:xlink="http://www.w3.org/1999/xlink" x="0px" y="0px"
	 viewBox="0 0 100 105" enable-background="new 0 0 100 105" xml:space="preserve">
<g>
	<path fill="#E6E7E8" d="M63.8,69.9c-0.4-1.1-1.5-1.9-2.8-1.9h-6.2v-9.5c-1.6,0.2-3.2,0.4-4.8,0.4c-1.6,0-3.3-0.1-4.8-0.4v9.5H39
		c-1.3,0-2.5,0.8-2.8,1.9L34,77c-0.2,0.8-0.1,1.7,0.5,2.3c0.6,0.7,1.4,1,2.3,1h26.4h0c1.6,0,2.9-1.2,2.9-2.6c0-0.4-0.1-0.7-0.2-1
		L63.8,69.9z"/>
	<path fill="#E6E7E8" d="M82.8,28.4c-1.2,4.1-4.5,7.3-7.8,7.8c0-0.1,0.1-0.2,0.1-0.3c0-0.1,0.1-0.2,0.1-0.3c0.2-0.6,0.3-1.3,0.4-1.9
		c0-0.1,0-0.2,0.1-0.3c0.1-0.7,0.2-1.3,0.3-2c0-0.1,0-0.2,0-0.3c0.1-0.7,0.1-1.4,0.1-2.1V17.2c0.4-0.1,0.8-0.1,1.1-0.1
		c0.4,0,0.8,0.1,1.2,0.1C82.3,18.2,84.3,23.3,82.8,28.4 M64.3,23.6l-7.8,5.3l2.8,8.3c0.1,0.3,0,0.7-0.3,0.9
		c-0.2,0.1-0.3,0.2-0.5,0.2c-0.2,0-0.4,0-0.5-0.1l-8-5l-8,5c-0.3,0.2-0.7,0.2-1,0c-0.3-0.2-0.4-0.6-0.3-0.9l2.8-8.3l-7.8-5.3
		c-0.3-0.2-0.4-0.6-0.3-0.9c0.1-0.3,0.4-0.5,0.8-0.5L46,22l3.2-8.2c0.1-0.3,0.5-0.5,0.8-0.5c0.4,0,0.7,0.2,0.8,0.5L54,22l9.7,0.2
		c0.4,0,0.7,0.2,0.8,0.5C64.7,23,64.6,23.4,64.3,23.6 M17.2,28.4c-1.5-5.1,0.5-10.2,4.3-11.2c0.4-0.1,0.8-0.1,1.2-0.1
		c0.4,0,0.7,0,1.1,0.1V29c0,0.7,0,1.4,0.1,2.1c0,0.1,0,0.2,0,0.3c0.1,0.7,0.2,1.3,0.3,2c0,0.1,0,0.2,0.1,0.3
		c0.1,0.6,0.3,1.3,0.4,1.9c0,0.1,0.1,0.2,0.1,0.3c0,0.1,0.1,0.2,0.1,0.3C21.7,35.7,18.4,32.6,17.2,28.4 M79.7,13.2
		c-0.8-0.2-1.6-0.3-2.4-0.3c-0.4,0-0.8,0-1.1,0.1V5.9c0-1.4-1.2-2.5-2.7-2.5H26.6c-1.5,0-2.8,1.1-2.8,2.5V13c-0.4,0-0.8-0.1-1.1-0.1
		c-0.8,0-1.6,0.1-2.4,0.3c-6.4,1.5-9.8,8.9-7.6,16.3c1.9,6.5,7.5,11,13.2,11c0.3,0,0.6,0,0.9-0.1c0.2,0.4,0.4,0.8,0.7,1.2
		c0,0.1,0.1,0.1,0.1,0.2c0.3,0.6,0.7,1.1,1.1,1.7c0,0.1,0.1,0.1,0.1,0.2c0.4,0.6,0.8,1.1,1.3,1.6c0,0,0,0,0,0c0.9,1.1,2,2.1,3.1,3
		c0,0,0,0,0.1,0c0.5,0.5,1.1,0.9,1.7,1.3c0,0,0.1,0,0.1,0.1c2.4,1.7,5.1,3,8,3.8c0,0,0,0,0,0c0.7,0.2,1.5,0.4,2.2,0.5h0
		c0.8,0.1,1.6,0.3,2.4,0.3c0,0,0,0,0.1,0c0.8,0.1,1.6,0.1,2.4,0.1c0.8,0,1.6,0,2.4-0.1c0,0,0,0,0.1,0c0.8-0.1,1.6-0.2,2.4-0.3h0h0
		c0.7-0.1,1.5-0.3,2.2-0.5c0,0,0,0,0,0c2.9-0.8,5.6-2.1,8-3.8c0,0,0.1,0,0.1-0.1c0.6-0.4,1.1-0.8,1.7-1.3c0,0,0,0,0.1,0
		c1.1-0.9,2.1-1.9,3.1-3c0,0,0,0,0,0c0.4-0.5,0.9-1.1,1.3-1.6c0-0.1,0.1-0.1,0.1-0.2c0.4-0.5,0.8-1.1,1.1-1.7c0-0.1,0.1-0.1,0.1-0.2
		c0.2-0.4,0.5-0.8,0.7-1.2c0.3,0,0.6,0.1,0.9,0.1c5.7,0,11.2-4.5,13.2-11C89.5,22,86.1,14.7,79.7,13.2"/>
</g>
</svg>
