<?xml version="1.0" encoding="utf-8"?>
<!-- Generator: Adobe Illustrator 18.1.0, SVG Export Plug-In . SVG Version: 6.00 Build 0)  -->
<!DOCTYPE svg PUBLIC "-//W3C//DTD SVG 1.1//EN" "http://www.w3.org/Graphics/SVG/1.1/DTD/svg11.dtd">
<svg version="1.1" id="Layer_1" xmlns="http://www.w3.org/2000/svg" xmlns:xlink="http://www.w3.org/1999/xlink" x="0px" y="0px"
	 viewBox="0 0 100 105" enable-background="new 0 0 100 105" xml:space="preserve">
<g>
	<path fill="#58595B" d="M38.6,27H15.9c-0.7,0-1.3,0.6-1.3,1.4c0,0.8,0.6,1.4,1.3,1.4h22.7c0.7,0,1.3-0.6,1.3-1.4
		C40,27.6,39.4,27,38.6,27"/>
	<path fill="#58595B" d="M38.6,38.8H15.9c-0.7,0-1.3,0.6-1.3,1.4c0,0.8,0.6,1.4,1.3,1.4h22.7c0.7,0,1.3-0.6,1.3-1.4
		C40,39.4,39.4,38.8,38.6,38.8"/>
	<path fill="#58595B" d="M38.6,50.5H15.9c-0.7,0-1.3,0.6-1.3,1.4c0,0.8,0.6,1.4,1.3,1.4h22.7c0.7,0,1.3-0.6,1.3-1.4
		C40,51.2,39.4,50.5,38.6,50.5"/>
	<path fill="#58595B" d="M60,28.4c0,0.8,0.6,1.4,1.3,1.4H84c0.7,0,1.3-0.6,1.3-1.4c0-0.8-0.6-1.4-1.3-1.4H61.3
		C60.5,27,60,27.6,60,28.4"/>
	<path fill="#58595B" d="M84,38.8H61.3c-0.7,0-1.3,0.6-1.3,1.4c0,0.8,0.6,1.4,1.3,1.4H84c0.7,0,1.3-0.6,1.3-1.4
		C85.3,39.4,84.7,38.8,84,38.8"/>
	<path fill="#58595B" d="M84,50.5H61.3c-0.7,0-1.3,0.6-1.3,1.4c0,0.8,0.6,1.4,1.3,1.4H84c0.7,0,1.3-0.6,1.3-1.4
		C85.3,51.2,84.7,50.5,84,50.5"/>
	<path fill="#58595B" d="M91.6,71.6c-12-1.7-26.3-1.7-38.2,0V13.8c1.4-1.4,8.1-3.9,19.1-3.9c11.1,0,17.8,2.5,19.1,3.9V71.6z
		 M8.4,71.6V13.8c1.4-1.4,8.1-3.9,19.1-3.9c11.1,0,17.8,2.5,19.1,3.9v57.8c-6-0.9-12.5-1.3-19.1-1.3C20.9,70.3,14.4,70.8,8.4,71.6
		 M72.5,2.8c-8.3,0-17.6,1.4-22.5,4.8c-4.9-3.5-14.2-4.8-22.5-4.8C15.6,2.8,1.7,5.6,1.7,13.4v62.4c0,1.1,0.4,2.1,1.2,2.7
		c0.8,0.7,1.8,1,2.7,0.8c6.6-1.2,14.2-1.9,21.9-1.9c7.7,0,15.3,0.6,21.9,1.9c0.1,0,0.2,0,0.3,0c0.1,0,0.1,0,0.2,0c0,0,0.1,0,0.1,0
		c0.2,0,0.4,0,0.5-0.1c0,0,0,0,0,0c6.6-1.2,14.2-1.9,21.9-1.9c7.7,0,15.3,0.6,21.9,1.9c0.2,0,0.4,0.1,0.6,0.1c0.8,0,1.6-0.3,2.2-0.8
		c0.8-0.7,1.2-1.7,1.2-2.7V13.4C98.3,5.6,84.4,2.8,72.5,2.8"/>
</g>
</svg>
