<?xml version="1.0" encoding="utf-8"?>
<!-- Generator: Adobe Illustrator 18.1.0, SVG Export Plug-In . SVG Version: 6.00 Build 0)  -->
<!DOCTYPE svg PUBLIC "-//W3C//DTD SVG 1.1//EN" "http://www.w3.org/Graphics/SVG/1.1/DTD/svg11.dtd">
<svg version="1.1" id="Layer_1" xmlns="http://www.w3.org/2000/svg" xmlns:xlink="http://www.w3.org/1999/xlink" x="0px" y="0px"
	 viewBox="0 0 100 105" enable-background="new 0 0 100 105" xml:space="preserve">
<g>
	<path fill="#E6E7E8" d="M90.2,72.7c0,1.4-1.7,2.6-3.7,2.6h-73c-2,0-3.7-1.1-3.7-2.6V24.5h80.5V72.7z M86.5,6.3h-8.7v5.5
		c0,2.1-2.5,3.8-5.5,3.8c-3,0-5.5-1.7-5.5-3.8V6.3H33.1v5.5c0,2.1-2.5,3.8-5.5,3.8s-5.5-1.7-5.5-3.8V6.3h-8.7
		c-5.9,0-10.6,3.3-10.6,7.3v59.1c0,4,4.8,7.3,10.6,7.3h73c5.9,0,10.6-3.3,10.6-7.3V13.6C97.2,9.6,92.4,6.3,86.5,6.3"/>
	<path fill="#E6E7E8" d="M27.6,13.2c1.1,0,2-0.6,2-1.4V6.3V3.1c0-0.8-0.9-1.4-2-1.4c-1.1,0-2,0.6-2,1.4v3.2v5.5
		C25.6,12.6,26.5,13.2,27.6,13.2"/>
	<path fill="#E6E7E8" d="M72.4,13.2c1.1,0,2-0.6,2-1.4V3.1c0-0.8-0.9-1.4-2-1.4c-1.1,0-2,0.6-2,1.4v8.7
		C70.3,12.6,71.2,13.2,72.4,13.2"/>
	<path fill="#E6E7E8" d="M37.4,37.4H43c0.4,0,0.8-0.2,0.8-0.5V33c0-0.3-0.4-0.5-0.8-0.5h-5.6c-0.4,0-0.8,0.2-0.8,0.5v3.9
		C36.6,37.1,36.9,37.4,37.4,37.4"/>
	<path fill="#E6E7E8" d="M47.6,37.4h5.6c0.4,0,0.8-0.2,0.8-0.5V33c0-0.3-0.4-0.5-0.8-0.5h-5.6c-0.4,0-0.8,0.2-0.8,0.5v3.9
		C46.8,37.1,47.1,37.4,47.6,37.4"/>
	<path fill="#E6E7E8" d="M57.7,37.4h5.6c0.4,0,0.8-0.2,0.8-0.5V33c0-0.3-0.4-0.5-0.8-0.5h-5.6c-0.4,0-0.8,0.2-0.8,0.5v3.9
		C56.9,37.1,57.3,37.4,57.7,37.4"/>
	<path fill="#E6E7E8" d="M67.9,37.4h5.6c0.4,0,0.8-0.2,0.8-0.5V33c0-0.3-0.4-0.5-0.8-0.5h-5.6c-0.4,0-0.8,0.2-0.8,0.5v3.9
		C67.1,37.1,67.5,37.4,67.9,37.4"/>
	<path fill="#E6E7E8" d="M78.1,37.4h5.6c0.4,0,0.8-0.2,0.8-0.5V33c0-0.3-0.4-0.5-0.8-0.5h-5.6c-0.4,0-0.8,0.2-0.8,0.5v3.9
		C77.3,37.1,77.7,37.4,78.1,37.4"/>
	<path fill="#E6E7E8" d="M17,47.2h5.6c0.4,0,0.8-0.2,0.8-0.5v-3.9c0-0.3-0.4-0.5-0.8-0.5H17c-0.4,0-0.8,0.2-0.8,0.5v3.9
		C16.2,47,16.5,47.2,17,47.2"/>
	<path fill="#E6E7E8" d="M27.2,47.2h5.6c0.4,0,0.8-0.2,0.8-0.5v-3.9c0-0.3-0.4-0.5-0.8-0.5h-5.6c-0.4,0-0.8,0.2-0.8,0.5v3.9
		C26.4,47,26.7,47.2,27.2,47.2"/>
	<path fill="#E6E7E8" d="M37.4,47.2H43c0.4,0,0.8-0.2,0.8-0.5v-3.9c0-0.3-0.4-0.5-0.8-0.5h-5.6c-0.4,0-0.8,0.2-0.8,0.5v3.9
		C36.6,47,36.9,47.2,37.4,47.2"/>
	<path fill="#E6E7E8" d="M47.6,47.2h5.6c0.4,0,0.8-0.2,0.8-0.5v-3.9c0-0.3-0.4-0.5-0.8-0.5h-5.6c-0.4,0-0.8,0.2-0.8,0.5v3.9
		C46.8,47,47.1,47.2,47.6,47.2"/>
	<path fill="#E6E7E8" d="M57.7,47.2h5.6c0.4,0,0.8-0.2,0.8-0.5v-3.9c0-0.3-0.4-0.5-0.8-0.5h-5.6c-0.4,0-0.8,0.2-0.8,0.5v3.9
		C56.9,47,57.3,47.2,57.7,47.2"/>
	<path fill="#E6E7E8" d="M67.9,47.2h5.6c0.4,0,0.8-0.2,0.8-0.5v-3.9c0-0.3-0.4-0.5-0.8-0.5h-5.6c-0.4,0-0.8,0.2-0.8,0.5v3.9
		C67.1,47,67.5,47.2,67.9,47.2"/>
	<path fill="#E6E7E8" d="M78.1,47.2h5.6c0.4,0,0.8-0.2,0.8-0.5v-3.9c0-0.3-0.4-0.5-0.8-0.5h-5.6c-0.4,0-0.8,0.2-0.8,0.5v3.9
		C77.3,47,77.7,47.2,78.1,47.2"/>
	<path fill="#E6E7E8" d="M17,57h5.6c0.4,0,0.8-0.2,0.8-0.5v-3.9c0-0.3-0.4-0.5-0.8-0.5H17c-0.4,0-0.8,0.2-0.8,0.5v3.9
		C16.2,56.8,16.5,57,17,57"/>
	<path fill="#E6E7E8" d="M27.2,57h5.6c0.4,0,0.8-0.2,0.8-0.5v-3.9c0-0.3-0.4-0.5-0.8-0.5h-5.6c-0.4,0-0.8,0.2-0.8,0.5v3.9
		C26.4,56.8,26.7,57,27.2,57"/>
	<path fill="#E6E7E8" d="M37.4,57H43c0.4,0,0.8-0.2,0.8-0.5v-3.9c0-0.3-0.4-0.5-0.8-0.5h-5.6c-0.4,0-0.8,0.2-0.8,0.5v3.9
		C36.6,56.8,36.9,57,37.4,57"/>
	<path fill="#E6E7E8" d="M47.6,57h5.6c0.4,0,0.8-0.2,0.8-0.5v-3.9c0-0.3-0.4-0.5-0.8-0.5h-5.6c-0.4,0-0.8,0.2-0.8,0.5v3.9
		C46.8,56.8,47.1,57,47.6,57"/>
	<path fill="#E6E7E8" d="M57.7,57h5.6c0.4,0,0.8-0.2,0.8-0.5v-3.9c0-0.3-0.4-0.5-0.8-0.5h-5.6c-0.4,0-0.8,0.2-0.8,0.5v3.9
		C56.9,56.8,57.3,57,57.7,57"/>
	<path fill="#E6E7E8" d="M67.9,57h5.6c0.4,0,0.8-0.2,0.8-0.5v-3.9c0-0.3-0.4-0.5-0.8-0.5h-5.6c-0.4,0-0.8,0.2-0.8,0.5v3.9
		C67.1,56.8,67.5,57,67.9,57"/>
	<path fill="#E6E7E8" d="M78.1,57h5.6c0.4,0,0.8-0.2,0.8-0.5v-3.9c0-0.3-0.4-0.5-0.8-0.5h-5.6c-0.4,0-0.8,0.2-0.8,0.5v3.9
		C77.3,56.8,77.7,57,78.1,57"/>
	<path fill="#E6E7E8" d="M17,66.9h5.6c0.4,0,0.8-0.2,0.8-0.5v-3.9c0-0.3-0.4-0.5-0.8-0.5H17c-0.4,0-0.8,0.2-0.8,0.5v3.9
		C16.2,66.6,16.5,66.9,17,66.9"/>
	<path fill="#E6E7E8" d="M27.2,66.9h5.6c0.4,0,0.8-0.2,0.8-0.5v-3.9c0-0.3-0.4-0.5-0.8-0.5h-5.6c-0.4,0-0.8,0.2-0.8,0.5v3.9
		C26.4,66.6,26.7,66.9,27.2,66.9"/>
	<path fill="#E6E7E8" d="M37.4,66.9H43c0.4,0,0.8-0.2,0.8-0.5v-3.9c0-0.3-0.4-0.5-0.8-0.5h-5.6c-0.4,0-0.8,0.2-0.8,0.5v3.9
		C36.6,66.6,36.9,66.9,37.4,66.9"/>
	<path fill="#E6E7E8" d="M47.6,66.9h5.6c0.4,0,0.8-0.2,0.8-0.5v-3.9c0-0.3-0.4-0.5-0.8-0.5h-5.6c-0.4,0-0.8,0.2-0.8,0.5v3.9
		C46.8,66.6,47.1,66.9,47.6,66.9"/>
	<path fill="#E6E7E8" d="M57.7,66.9h5.6c0.4,0,0.8-0.2,0.8-0.5v-3.9c0-0.3-0.4-0.5-0.8-0.5h-5.6c-0.4,0-0.8,0.2-0.8,0.5v3.9
		C56.9,66.6,57.3,66.9,57.7,66.9"/>
</g>
</svg>
