<?xml version="1.0" encoding="utf-8"?>
<!-- Generator: Adobe Illustrator 18.1.0, SVG Export Plug-In . SVG Version: 6.00 Build 0)  -->
<!DOCTYPE svg PUBLIC "-//W3C//DTD SVG 1.1//EN" "http://www.w3.org/Graphics/SVG/1.1/DTD/svg11.dtd">
<svg version="1.1" id="Layer_1" xmlns="http://www.w3.org/2000/svg" xmlns:xlink="http://www.w3.org/1999/xlink" x="0px" y="0px"
	 viewBox="0 0 100 105" enable-background="new 0 0 100 105" xml:space="preserve">
<g>
	<path fill="#E6E7E8" d="M68.4,28.6c-2.9,0-5.3-2.4-5.3-5.3c0-2.9,2.4-5.3,5.3-5.3c2.9,0,5.3,2.4,5.3,5.3
		C73.7,26.3,71.3,28.6,68.4,28.6 M85,20.7l-4.4-1.2c-0.2-0.7-0.5-1.4-0.9-2.1l2.3-4c0.7-1.4,1-2.7,0-3.8c-1-1-2.5-0.7-3.8,0l-4,2.3
		c-0.6-0.3-1.3-0.6-2-0.8L71,6.7C70.6,5.2,69.8,4,68.3,4c-1.5,0-2.3,1.3-2.7,2.7l-1.2,4.6c-0.7,0.2-1.3,0.5-1.9,0.8l-4.1-2.4
		c-1.4-0.7-2.7-1-3.8,0c-1,1-0.7,2.5,0,3.8l2.4,4.2c-0.3,0.6-0.5,1.2-0.7,1.8l-4.7,1.2c-1.5,0.4-2.7,1.2-2.7,2.7
		c0,1.5,1.3,2.3,2.7,2.7l4.7,1.2c0.2,0.6,0.5,1.2,0.7,1.8l-2.4,4.2c-0.7,1.4-1,2.7,0,3.8c1,1,2.5,0.7,3.8,0l4.1-2.4
		c0.6,0.3,1.2,0.6,1.9,0.8l1.2,4.6c0.4,1.5,1.2,2.7,2.7,2.7c1.5,0,2.3-1.3,2.7-2.7l1.2-4.5c0.7-0.2,1.4-0.5,2-0.8l4,2.3
		c1.4,0.7,2.7,1,3.8,0c1-1,0.7-2.5,0-3.8l-2.3-3.9c0.4-0.7,0.7-1.4,0.9-2.1L85,26c1.5-0.4,2.7-1.2,2.7-2.7
		C87.7,21.9,86.4,21.1,85,20.7"/>
	<path fill="#E6E7E8" d="M37.6,61.8c-4.2,0-7.7-3.4-7.7-7.7c0-4.2,3.4-7.7,7.7-7.7c4.2,0,7.7,3.4,7.7,7.7
		C45.2,58.4,41.8,61.8,37.6,61.8 M60.2,51.5l-4.5-1.2c-0.1-0.6-0.3-1.2-0.5-1.8l3.3-3.3c1.1-1.1,1.7-2.4,1-3.7
		c-0.7-1.3-2.2-1.3-3.7-1l-4.5,1.2c-0.4-0.5-0.9-0.9-1.3-1.3l1.2-4.5c0.4-1.5,0.3-2.9-1-3.7c-1.3-0.7-2.6,0-3.7,1l-3.3,3.3
		c-0.6-0.2-1.2-0.4-1.8-0.5l-1.2-4.5c-0.4-1.5-1.2-2.7-2.7-2.7c-1.5,0-2.3,1.3-2.7,2.7l-1.2,4.5c-0.6,0.1-1.2,0.3-1.9,0.5l-3.3-3.3
		c-1.1-1.1-2.4-1.7-3.7-1c-1.3,0.7-1.3,2.2-1,3.7l1.2,4.5c-0.5,0.4-0.9,0.9-1.3,1.3l-4.5-1.2c-1.5-0.4-2.9-0.3-3.7,1
		c-0.7,1.3,0,2.6,1,3.7l3.3,3.3c-0.2,0.6-0.4,1.2-0.5,1.8L15,51.5c-1.5,0.4-2.7,1.2-2.7,2.7c0,1.5,1.3,2.3,2.7,2.7l4.5,1.2
		c0.1,0.6,0.3,1.2,0.5,1.8l-3.3,3.3c-1.1,1.1-1.7,2.4-1,3.7c0.7,1.3,2.2,1.3,3.7,1l4.5-1.2c0.4,0.5,0.9,0.9,1.3,1.3L24,72.4
		c-0.4,1.5-0.3,2.9,1,3.7c1.3,0.7,2.6,0,3.7-1l3.3-3.3c0.6,0.2,1.2,0.4,1.9,0.5l1.2,4.5c0.4,1.5,1.2,2.7,2.7,2.7
		c1.5,0,2.3-1.3,2.7-2.7l1.2-4.5c0.6-0.1,1.2-0.3,1.9-0.5l3.3,3.3c1.1,1.1,2.4,1.7,3.7,1c1.3-0.7,1.3-2.3,1-3.7L50,67.9
		c0.5-0.4,0.9-0.9,1.3-1.3l4.5,1.2c1.5,0.4,2.9,0.3,3.7-1c0.7-1.3,0-2.6-1-3.7l-3.3-3.3c0.2-0.6,0.4-1.2,0.5-1.8l4.5-1.2
		c1.5-0.4,2.7-1.2,2.7-2.7C62.8,52.7,61.6,51.9,60.2,51.5"/>
</g>
</svg>
