<?xml version="1.0" encoding="utf-8"?>
<!-- Generator: Adobe Illustrator 18.1.0, SVG Export Plug-In . SVG Version: 6.00 Build 0)  -->
<!DOCTYPE svg PUBLIC "-//W3C//DTD SVG 1.1//EN" "http://www.w3.org/Graphics/SVG/1.1/DTD/svg11.dtd">
<svg version="1.1" id="Layer_1" xmlns="http://www.w3.org/2000/svg" xmlns:xlink="http://www.w3.org/1999/xlink" x="0px" y="0px"
	 viewBox="5 -45 950 650" enable-background="new 5 -45 950 650" xml:space="preserve">
<g>
	<path fill="#FFC95F" d="M689.6,197.9c-30.9-9.6-46.9-45.9-30.9-75.7c9.6-18.1,29.9-28.8,50.1-26.7c35.2,3.2,55.5,36.3,45.9,67.2
		C746.1,190.4,717.3,205.3,689.6,197.9 M869.8,170.2l-39.5-23.5c0-7.5-1.1-14.9-2.1-22.4l34.1-30.9C873,82.7,880.5,69.9,873,57.1
		s-22.4-14.9-36.3-10.7l-45.9,10.7c-5.3-5.3-10.7-9.6-17.1-13.9l1.1-46.9c0-16-4.3-29.9-18.1-34.1c-13.9-4.3-25.6,6.4-34.1,18.1
		l-24.5,40.5c-6.4,0-13.9,1.1-20.3,2.1l-32-35.2c-10.7-10.7-23.5-18.1-36.3-10.7c-12.8,7.5-14.9,22.4-10.7,36.3l10.7,48
		c-4.3,4.3-8.5,9.6-12.8,14.9l-48-2.1c-16,0-29.9,4.3-34.1,18.1c-4.3,13.9,6.4,25.6,18.1,34.1l41.6,25.6c0,6.4,1.1,12.8,2.1,19.2
		l-35.2,33.1c-10.7,10.7-18.1,23.5-10.7,36.3c6.4,12.8,22.4,14.9,36.3,10.7l46.9-11.7c4.3,4.3,9.6,8.5,16,13.9l-2.1,48
		c0,16,4.3,29.9,18.1,34.1c13.9,4.3,25.6-6.4,34.1-18.1l24.5-39.5c7.5,0,14.9,0,22.4-2.1l32,34.1c10.7,10.7,23.5,18.1,36.3,10.7
		c12.8-6.4,14.9-22.4,10.7-36.3l-10.7-44.8c5.3-5.3,10.7-11.7,13.9-18.1l45.9,2.1c16,0,29.9-4.3,34.1-18.1
		C893.3,189.4,882.6,177.6,869.8,170.2"/>
	<path fill="#FFC95F" d="M298.2,426.1c-44.8-13.9-69.3-66.1-45.9-109.8c13.9-26.7,44.8-42.7,74.7-39.5c50.1,4.3,80,53.3,67.2,99.2
		C381.4,415.4,338.7,437.8,298.2,426.1 M543.5,392L504,367.5c1.1-6.4,1.1-12.8,1.1-19.2l40.5-22.4c12.8-7.5,23.5-17.1,19.2-32
		c-3.2-14.9-18.1-19.2-32-19.2l-46.9-1.1c-3.2-5.3-5.3-11.7-8.5-16l24.5-39.5c7.5-12.8,10.7-26.7,2.1-37.3
		c-10.7-10.7-25.6-7.5-37.3-2.1l-40.5,22.4c-5.3-3.2-10.7-7.5-17.1-9.6l1.1-46.9c0-16-4.3-29.9-18.1-34.1
		c-13.9-4.3-25.6,6.4-34.1,18.1L333.4,168c-6.4-1.1-12.8-1.1-19.2-1.1l-22.4-40.5c-7.5-12.8-17.1-23.5-32-19.2
		c-14.9,3.2-19.2,18.1-19.2,32l-2.1,45.9c-5.3,3.2-11.7,5.3-16,8.5L183,169.1c-12.8-7.5-26.7-10.7-37.3-2.1
		c-10.7,10.7-7.5,25.6-2.1,37.3l22.4,40.5c-3.2,5.3-7.5,10.7-9.6,17.1l-46.9-1.1c-16,0-29.9,4.3-34.1,18.1
		c-5.3,14.9,5.3,25.6,17.1,34.1l39.5,24.5c-1.1,6.4-1.1,12.8-1.1,19.2l-40.5,22.4c-12.8,7.5-23.5,17.1-19.2,32
		c3.2,14.9,18.1,19.2,32,19.2l46.9,1.1c3.2,5.3,5.3,11.7,8.5,16l-24.5,39.5c-7.5,12.8-10.7,26.7-2.1,37.3
		c10.7,10.7,25.6,7.5,37.3,2.1l40.5-22.4c5.3,3.2,10.7,7.5,17.1,9.6l-1.1,46.9c0,16,4.3,29.9,18.1,34.1c13.9,4.3,25.6-6.4,34.1-18.1
		l24.5-39.5c6.4,1.1,12.8,1.1,19.2,1.1l22.4,40.5c7.5,12.8,17.1,23.5,32,19.2c14.9-3.2,19.2-18.1,19.2-32l1.1-46.9
		c5.3-2.1,11.7-5.3,16-8.5l39.5,24.5c12.8,7.5,26.7,10.7,37.3,2.1c10.7-10.7,7.5-25.6,2.1-37.3l-22.4-40.5
		c3.2-5.3,7.5-10.7,9.6-17.1l46.9,1.1c16,0,29.9-4.3,34.1-18.1C565.9,412.2,555.2,400.5,543.5,392"/>
</g>
</svg>
