<?xml version="1.0" encoding="utf-8"?>
<!-- Generator: Adobe Illustrator 18.1.0, SVG Export Plug-In . SVG Version: 6.00 Build 0)  -->
<!DOCTYPE svg PUBLIC "-//W3C//DTD SVG 1.1//EN" "http://www.w3.org/Graphics/SVG/1.1/DTD/svg11.dtd">
<svg version="1.1" id="Layer_1" xmlns="http://www.w3.org/2000/svg" xmlns:xlink="http://www.w3.org/1999/xlink" x="0px" y="0px"
	 viewBox="72 6 798 528" enable-background="new 72 6 798 528" xml:space="preserve">
<g>
	<ellipse id="right_lens_1_" fill="#FFFFFF" cx="262.4" cy="396.4" rx="136.3" ry="89.1"/>
	<ellipse id="left_lens_2_" fill="#FFFFFF" cx="692.4" cy="396.4" rx="136.3" ry="89.1"/>
	<path fill="#FFC95F" d="M685,480.3c-70.3,0-130-38.8-130-84.9c0-8.4,2.1-15.7,5.2-22c0-1,1-1,1-3.1c17.8-33.6,68.2-59.8,124.8-59.8
		c70.3,0,130,38.8,130,84.9C816.1,442.5,756.3,480.3,685,480.3 M264.5,480.3c-70.3,0-130-38.8-130-84.9c0-8.4,2.1-16.8,6.3-24.1
		l5.2-9.4c21-29.4,68.2-52.4,120.6-52.4c70.3,0,130,38.8,130,84.9C395.6,442.5,334.8,480.3,264.5,480.3 M857,353.4
		c-1-2.1-1-3.1-2.1-5.2L706,83.9c-4.2-8.4-43-73.4-101.7-73.4h-1c-35.7,0-68.2,24.1-93.3,73.4c-6.3,12.6-2.1,27.3,10.5,33.6
		c12.6,6.3,27.3,1,33.6-10.5c16.8-29.4,33.6-47.2,49.3-47.2l0,0c22,0,48.2,31.5,56.6,48.2l91.2,164.6c-21-6.3-45.1-10.5-69.2-10.5
		c-70.3,0-132.1,29.4-162.5,72.4c-13.6-2.1-27.3-3.1-41.9-3.1c-17.8,0-35.7,2.1-53.5,5.2c-29.4-44-91.2-75.5-164.6-75.5
		c-24.1,0-47.2,3.1-68.2,10.5l91.2-160.4c9.4-15.7,33.6-48.2,56.6-48.2l0,0c15.7,0,32.5,17.8,49.3,47.2c6.3,12.6,22,17.8,33.6,10.5
		c12.6-6.3,17.8-22,10.5-33.6c-26.2-48.2-57.7-74.5-94.4-74.5h-1c-57.7,0-97.5,66.1-101.7,74.5L94.6,341.9c-1,1-1,2.1-2.1,3.1
		l-2.1,3.1c-1,1-1,2.1-2.1,3.1c-6.3,13.6-9.4,27.3-9.4,44c0,74.5,81.8,134.2,182.5,134.2s182.5-60.8,182.5-134.2c0-4.2,0-8.4-1-12.6
		c12.6-2.1,23.1-3.1,34.6-3.1c7.3,0,15.7,1,23.1,1c-1,4.2-1,9.4-1,13.6c0,74.5,81.8,134.2,182.5,134.2s182.5-60.8,182.5-134.2
		C867.5,381.7,863.3,366,857,353.4"/>
</g>
</svg>
