<?xml version="1.0" encoding="utf-8"?>
<!-- Generator: Adobe Illustrator 18.1.0, SVG Export Plug-In . SVG Version: 6.00 Build 0)  -->
<!DOCTYPE svg PUBLIC "-//W3C//DTD SVG 1.1//EN" "http://www.w3.org/Graphics/SVG/1.1/DTD/svg11.dtd">
<svg version="1.1" id="Layer_1" xmlns="http://www.w3.org/2000/svg" xmlns:xlink="http://www.w3.org/1999/xlink" x="0px" y="0px"
	 viewBox="0 0 100 105" enable-background="new 0 0 100 105" xml:space="preserve">
<g>
	<path fill="#E6E7E8" d="M76.3,71.4c-8.9,0-16.4-5.8-16.4-12.7c0-1.2,0.2-2.3,0.6-3.3c0.1-0.1,0.1-0.3,0.1-0.4
		c2.1-5.1,8.4-8.9,15.6-8.9c8.9,0,16.4,5.8,16.4,12.7C92.7,65.6,85.2,71.4,76.3,71.4 M23.7,71.4c-8.9,0-16.4-5.8-16.4-12.7
		c0-1.2,0.2-2.4,0.7-3.6l0.6-1.3c2.5-4.5,8.4-7.8,15-7.8c8.9,0,16.4,5.8,16.4,12.7C40,65.6,32.5,71.4,23.7,71.4 M97.9,52.3
		c-0.1-0.3-0.2-0.6-0.3-0.8L79.1,12c-0.5-1.1-5.4-11-12.7-11c0,0-0.1,0-0.1,0c-4.5,0.1-8.5,3.8-11.8,11.1c-0.8,1.8-0.2,4.1,1.4,5.1
		c1.6,1,3.5,0.3,4.4-1.6c2.1-4.5,4.2-7.1,6.1-7.1h0c2.8,0,6,4.8,7.1,7.1L85,40.1c-2.7-1-5.6-1.5-8.6-1.5c-8.8,0-16.5,4.5-20.3,11
		c-1.7-0.3-3.5-0.5-5.2-0.5c-2.3,0-4.5,0.3-6.7,0.8c-3.7-6.7-11.5-11.3-20.5-11.3c-3,0-5.9,0.5-8.6,1.5l11.4-24.2
		c1.1-2.3,4.3-7.2,7.1-7.2h0c1.9,0,4.1,2.5,6.1,7.1c0.8,1.8,2.8,2.5,4.4,1.6c1.6-1,2.2-3.2,1.4-5.1C42.2,5,38.2,1.3,33.7,1.2h-0.1
		c-7.3,0-12.2,9.9-12.8,11L2.7,50.7c-0.1,0.1-0.1,0.3-0.2,0.5l-0.2,0.5c-0.1,0.2-0.1,0.4-0.2,0.6c-0.8,2-1.2,4.2-1.2,6.5
		c0,11.1,10.2,20.2,22.8,20.2c12.6,0,22.8-9,22.8-20.2c0-0.6,0-1.2-0.1-1.7c1.4-0.3,2.9-0.4,4.4-0.4c0.9,0,1.9,0.1,2.8,0.2
		c-0.1,0.7-0.1,1.3-0.1,2c0,11.1,10.2,20.2,22.8,20.2c12.6,0,22.8-9,22.8-20.2C99.2,56.5,98.7,54.3,97.9,52.3"/>
</g>
</svg>
