<?xml version="1.0" encoding="utf-8"?>
<!-- Generator: Adobe Illustrator 18.1.0, SVG Export Plug-In . SVG Version: 6.00 Build 0)  -->
<!DOCTYPE svg PUBLIC "-//W3C//DTD SVG 1.1//EN" "http://www.w3.org/Graphics/SVG/1.1/DTD/svg11.dtd">
<svg version="1.1" id="Layer_1" xmlns="http://www.w3.org/2000/svg" xmlns:xlink="http://www.w3.org/1999/xlink" x="0px" y="0px"
	 viewBox="0 0 90 113" enable-background="new 0 0 90 113" xml:space="preserve">
<g>
	<g id="XMLID_1_">
		<g>
			<path fill="#FFFFFF" d="M65.7,44.7c0,0.1,0,0.2-0.1,0.2c-0.3,0.9-2.5,6.7-7.1,11.4c0,0,0,0-0.1,0c0,0,0.6-14.4-25.8-0.6
				c-0.5,0.3-1.1,0.6-1.6,0.9c-8.9-8.6-5.6-23.3-5.1-25.3c0-0.1,0.1-0.3,0.2-0.4l0.8-1.3c0.5,0.3,1.1,0.4,1.7,0
				c2.9-2,7.4-5.8,9.4-11.7c0,0,4.8,7.2,18.6,11.4c13.8,4.2,7.2,10.8,8.4,13.2c0.2,0.5,0.5,0.9,0.8,1.2L65.7,44.7z"/>
			<path fill="#FFFFFF" d="M32.7,55.7c26.4-13.8,25.8,0.6,25.8,0.6s0,0.1-0.1,0.2c-4.4,4.4-10.8,7.6-19.7,4.6
				c-2.5-0.9-4.6-2-6.4-3.4c-0.4-0.3-0.9-0.7-1.3-1.1C31.6,56.2,32.1,56,32.7,55.7z"/>
			<path fill="#FFFFFF" d="M58.5,56.3C58.5,56.3,58.6,56.3,58.5,56.3c0,0.1,0,0.2-0.1,0.2C58.5,56.3,58.5,56.3,58.5,56.3z"/>
			<path fill="#E08626" d="M60.9,68.3c-1,0-1.7,0.9-1.5,1.9c0.1,0.7,0.1,1.5,0,2c-0.1,0.5-0.4,1-0.9,1.2c-3.6,1.5-19.2,7.9-19.2,6.2
				c0-0.4,0.7-1.1,2.5-2.4c10-7.2,15.8-18.9,16.7-20.8c0.1-0.1,0.1-0.1,0.2-0.2c0,0,0,0,0.1,0c5.2,3.1,5.2,8.1,4.9,10.6
				c-0.1,0.8-0.8,1.4-1.6,1.4H60.9z"/>
			<path fill="#FFC95F" d="M39.2,79.6c0,1.7,15.6-4.8,19.2-6.2c0.5-0.2,0.8-0.6,0.9-1.2c0.1-0.5,0.2-1.3,0-2c-0.2-1,0.5-1.9,1.5-1.9
				H62c0.8,0,1.5-0.6,1.6-1.4c0.3-2.4,0.2-7.4-4.9-10.6c2.1,1.2,24.5,14.1,24.5,39.8c0,0.6-0.4,1.2-0.9,1.4
				c-4.8,2.1-26.9,11-49.8,8.5c1.9-14.9,5.7-26.6,5.6-26.3L39.2,79.6z"/>
			<path fill="#FFF1D5" d="M41.7,77.3c-1.7,1.3-2.5,2-2.5,2.4l-1.1,0c-4.5-5.8-5.4-15-5.5-20.2c0-0.6-0.3-1.1-0.7-1.3l0.5-0.6
				c1.7,1.4,3.8,2.5,6.4,3.4c8.9,3,15.3-0.2,19.7-4.6C57.5,58.4,51.6,70.1,41.7,77.3z"/>
			<path fill="#E08626" d="M32.6,59.5c0.1,5.2,1,14.4,5.5,20.2L27.3,69.5c-0.7-0.7-0.7-1.7,0.1-2.3l0.8-0.7c0.9-0.8,0.6-2.3-0.5-2.7
				c-0.7-0.2-1-0.9-1-1.5c0-0.4,0.1-0.8,0.5-1.1l2.7-2.7c0.6-0.6,1.4-0.6,2-0.2C32.3,58.5,32.6,58.9,32.6,59.5z"/>
			<path fill="#E08626" d="M68.5,30.2L66,43.6c-0.3-0.3-0.6-0.7-0.8-1.2c-1.2-2.4,5.4-9-8.4-13.2C42.9,25,38.1,17.8,38.1,17.8
				c-2,5.9-6.5,9.7-9.4,11.7c-0.6,0.4-1.2,0.3-1.7,0l8.2-13.9c0.3-0.5,0.9-0.8,1.4-0.8l13.6,0.5c0.3,0,0.7,0.1,0.9,0.3l16.9,12.9
				C68.4,29,68.7,29.6,68.5,30.2z"/>
			<path fill="#E08626" d="M36.6,14.8c-0.6,0-1.1,0.3-1.4,0.8L27,29.5c-0.5-0.3-0.8-0.9-0.7-1.6c1.4-12.4,11.5-21.8,29.3-17.3
				c19.2,4.8,18,21,15.6,28.2c-1.9,5.8-3.9,6.2-5.2,4.8l2.6-13.5c0.1-0.6-0.1-1.2-0.6-1.5L51.1,15.7c-0.3-0.2-0.6-0.3-0.9-0.3
				L36.6,14.8z"/>
			<path fill="#FFC95F" d="M31.9,58.2c-0.6-0.4-1.4-0.3-2,0.2l-2.7,2.7c-0.3,0.3-0.5,0.7-0.5,1.1c0,0.6,0.4,1.2,1,1.5
				c1.1,0.4,1.4,1.9,0.5,2.7l-0.8,0.7c-0.7,0.6-0.8,1.7-0.1,2.3l10.7,10.2c0-0.3-3.7,11.4-5.6,26.3c-8.5-0.9-17-3.4-24.9-8.4
				c-0.5-0.3-0.8-0.8-0.7-1.4C7,91.4,9,69.1,31.1,56.5c0.4,0.4,0.8,0.8,1.3,1.1L31.9,58.2z"/>
		</g>
		<g>
			<path fill="none" stroke="#E08626" stroke-miterlimit="10" d="M31.9,58.2c0.4,0.3,0.7,0.7,0.7,1.3c0.1,5.2,1,14.4,5.5,20.2"/>
			<path fill="none" stroke="#E08626" stroke-miterlimit="10" d="M38.1,79.7c0-0.3-3.7,11.4-5.6,26.3c0,0.1,0,0.3-0.1,0.4"/>
		</g>
	</g>
</g>
</svg>
